<svg width="284" height="80" viewBox="0 0 284 80" fill="none" xmlns="http://www.w3.org/2000/svg">
<path d="M29.3959 66H41.2093L30.9756 48.3487C36.2642 45.6701 39.8356 40.3129 39.8356 34.4062C39.8356 25.2715 32.4866 17.9225 23.3519 17.9225H4.12093V66H15.1101V50.2031H20.3299L29.3959 66ZM15.1101 28.2248H23.3519C26.3739 28.2248 28.8465 30.9034 28.8465 34.4062C28.8465 37.909 26.3739 40.5876 23.3519 40.5876H15.1101V28.2248ZM161.532 66H171.834V15.8621H161.532V66ZM199.497 30.6974C194.964 30.6974 191.53 32.3458 189.675 34.887V17.9225H179.373V66H189.675V47.2498C189.675 42.3734 192.285 40.1755 196.063 40.1755C199.36 40.1755 202.038 42.1673 202.038 46.4256V66H212.34V44.9146C212.34 35.6425 206.434 30.6974 199.497 30.6974ZM244.347 31.6589V34.887C242.08 32.2771 238.715 30.6974 234.113 30.6974C225.116 30.6974 217.698 38.5958 217.698 48.8295C217.698 59.0631 225.116 66.9615 234.113 66.9615C238.715 66.9615 242.08 65.3819 244.347 62.7719V66H254.649V31.6589H244.347ZM236.174 57.2087C231.435 57.2087 228 53.9806 228 48.8295C228 43.6783 231.435 40.4503 236.174 40.4503C240.913 40.4503 244.347 43.6783 244.347 48.8295C244.347 53.9806 240.913 57.2087 236.174 57.2087Z" fill="#626262"/>
<path d="M55.2365 52.9504H79.6187C79.8934 51.6454 80.0308 50.2718 80.0308 48.8295C80.0308 38.4585 72.6131 30.6974 62.5855 30.6974C51.7337 30.6974 44.3161 38.5958 44.3161 48.8295C44.3161 59.0631 51.5964 66.9615 63.341 66.9615C69.8658 66.9615 74.9483 64.5577 78.3137 59.8873L70.0719 55.1482C68.6982 56.6592 66.2943 57.7581 63.4784 57.7581C59.7009 57.7581 56.5415 56.5219 55.2365 52.9504ZM55.0305 45.258C55.992 41.7552 58.6019 39.8321 62.5168 39.8321C65.6075 39.8321 68.6982 41.2744 69.7971 45.258H55.0305ZM102.022 66.9615C108.753 66.9615 114.591 63.4588 117.545 58.1016L108.547 52.9504C107.448 55.3543 104.907 56.7966 101.885 56.7966C97.4208 56.7966 94.124 53.5685 94.124 48.8295C94.124 44.0904 97.4208 40.8623 101.885 40.8623C104.907 40.8623 107.38 42.3047 108.547 44.7085L117.545 39.4887C114.591 34.2002 108.685 30.6974 102.022 30.6974C91.5828 30.6974 83.8217 38.5958 83.8217 48.8295C83.8217 59.0631 91.5828 66.9615 102.022 66.9615ZM137.504 66.9615C147.6 66.9615 155.704 59.0631 155.704 48.8295C155.704 38.5958 147.6 30.6974 137.504 30.6974C127.407 30.6974 119.303 38.5958 119.303 48.8295C119.303 59.0631 127.407 66.9615 137.504 66.9615ZM137.504 56.934C133.039 56.934 129.605 53.7059 129.605 48.8295C129.605 43.953 133.039 40.725 137.504 40.725C141.968 40.725 145.402 43.953 145.402 48.8295C145.402 53.7059 141.968 56.934 137.504 56.934Z" fill="#2CAE68"/>
<path fill-rule="evenodd" clip-rule="evenodd" d="M272.5 66C278.851 66 284 60.8513 284 54.5C284 48.1487 278.851 43 272.5 43C266.149 43 261 48.1487 261 54.5C261 60.8513 266.149 66 272.5 66ZM266.099 59.6154C264.642 58.6275 265.465 57.1455 265.916 56.334L266.901 54.5603L268.644 55.5021V50.0738L264 52.8816L265.743 53.8899L264.813 55.5632C264.167 56.6461 263.932 57.6463 264.14 58.7591C264.542 60.6685 267.044 60.9033 267.558 60.9304C268.04 60.9454 268.018 60.3035 267.608 60.2424C267.071 60.1365 266.557 59.9235 266.099 59.6154ZM274.497 48.7622C274.005 47.977 273.115 46.5571 271.58 47.4057C271.098 47.6731 270.673 48.0341 270.328 48.4683C270.015 48.9162 269.507 48.5728 269.726 48.1833C269.713 48.1996 271.056 45.6225 273.24 46.0473C274.477 46.3823 274.988 47.1247 275.679 48.1299L275.689 48.144L276.703 49.7576L278.39 48.6624L278.653 54.126L273.89 51.5828L275.579 50.4863L274.504 48.7723L274.497 48.7622ZM279.821 56.1644C279.647 55.6107 280.262 55.5442 280.38 55.802C280.38 55.802 281.856 58.523 280.254 59.9628C279.454 60.6916 278.506 60.9508 277.318 60.9304H275.307L275.301 63L270.646 60.2519L275.317 57.5377V59.5734H277.318H277.339C278.256 59.5735 279.907 59.5736 280.03 57.8064C280.066 57.25 279.995 56.6936 279.821 56.1644Z" fill="#2CAE68"/>
</svg>
