<svg width="226" height="61" viewBox="0 0 226 61" fill="none" xmlns="http://www.w3.org/2000/svg">
<path d="M22.1505 49.653H31.0521L23.3408 36.3524C27.3258 34.334 30.017 30.2972 30.017 25.8464C30.017 18.9632 24.4794 13.4256 17.5962 13.4256H3.10521V49.653H11.3858V37.7497H15.319L22.1505 49.653ZM11.3858 21.1886H17.5962C19.8733 21.1886 21.7364 23.207 21.7364 25.8464C21.7364 28.4858 19.8733 30.5042 17.5962 30.5042H11.3858V21.1886ZM121.718 49.653H129.481V11.873H121.718V49.653ZM150.325 23.0517C146.909 23.0517 144.322 24.2938 142.924 26.2087V13.4256H135.161V49.653H142.924V35.5243C142.924 31.8498 144.891 30.1937 147.737 30.1937C150.222 30.1937 152.24 31.6945 152.24 34.9033V49.653H160.003V33.7647C160.003 26.778 155.552 23.0517 150.325 23.0517ZM184.12 23.7763V26.2087C182.413 24.2421 179.877 23.0517 176.409 23.0517C169.63 23.0517 164.04 29.0034 164.04 36.7146C164.04 44.4259 169.63 50.3775 176.409 50.3775C179.877 50.3775 182.413 49.1872 184.12 47.2206V49.653H191.884V23.7763H184.12ZM177.962 43.0285C174.391 43.0285 171.803 40.5961 171.803 36.7146C171.803 32.8331 174.391 30.4007 177.962 30.4007C181.533 30.4007 184.12 32.8331 184.12 36.7146C184.12 40.5961 181.533 43.0285 177.962 43.0285Z" fill="#626262"/>
<path d="M41.6219 39.8198H59.9944C60.2014 38.8365 60.3049 37.8014 60.3049 36.7146C60.3049 28.8999 54.7155 23.0517 47.1595 23.0517C38.9825 23.0517 33.3931 29.0034 33.3931 36.7146C33.3931 44.4259 38.879 50.3775 47.7288 50.3775C52.6454 50.3775 56.4751 48.5662 59.011 45.0469L52.8006 41.4759C51.7656 42.6145 49.9542 43.4426 47.8323 43.4426C44.9859 43.4426 42.6052 42.511 41.6219 39.8198ZM41.4666 34.0234C42.1912 31.384 44.1578 29.9349 47.1077 29.9349C49.4367 29.9349 51.7656 31.0218 52.5936 34.0234H41.4666ZM76.8761 50.3775C81.9479 50.3775 86.347 47.7381 88.5724 43.7013L81.7927 39.8198C80.9646 41.6312 79.0497 42.718 76.7726 42.718C73.4086 42.718 70.9244 40.2856 70.9244 36.7146C70.9244 33.1436 73.4086 30.7112 76.7726 30.7112C79.0497 30.7112 80.9128 31.7981 81.7927 33.6094L88.5724 29.6762C86.347 25.6911 81.8962 23.0517 76.8761 23.0517C69.0096 23.0517 63.1614 29.0034 63.1614 36.7146C63.1614 44.4259 69.0096 50.3775 76.8761 50.3775ZM103.612 50.3775C111.22 50.3775 117.327 44.4259 117.327 36.7146C117.327 29.0034 111.22 23.0517 103.612 23.0517C96.0042 23.0517 89.8973 29.0034 89.8973 36.7146C89.8973 44.4259 96.0042 50.3775 103.612 50.3775ZM103.612 42.8215C100.248 42.8215 97.6603 40.3891 97.6603 36.7146C97.6603 33.0401 100.248 30.6077 103.612 30.6077C106.976 30.6077 109.564 33.0401 109.564 36.7146C109.564 40.3891 106.976 42.8215 103.612 42.8215Z" fill="#2CAE68"/>
<path fill-rule="evenodd" clip-rule="evenodd" d="M212.165 50.331C219.437 50.331 225.331 44.4366 225.331 37.1655C225.331 29.8944 219.437 24 212.165 24C204.894 24 199 29.8944 199 37.1655C199 44.4366 204.894 50.331 212.165 50.331ZM204.838 43.0218C203.169 41.8907 204.112 40.1942 204.628 39.2651L205.756 37.2345L207.751 38.3127V32.0982L202.434 35.3127L204.43 36.467L203.365 38.3826C202.625 39.6224 202.357 40.7674 202.595 42.0414C203.055 44.2274 205.919 44.4962 206.508 44.5272C207.059 44.5443 207.035 43.8094 206.566 43.7395C205.95 43.6184 205.362 43.3744 204.838 43.0218ZM214.452 30.5967C213.889 29.6978 212.869 28.0723 211.112 29.0438C210.561 29.3498 210.073 29.7631 209.679 30.2603C209.32 30.773 208.74 30.3799 208.99 29.934C208.975 29.9527 210.512 27.0023 213.013 27.4886C214.428 27.8721 215.013 28.722 215.805 29.8728L215.816 29.889L216.977 31.7362L218.908 30.4824L219.209 36.7373L213.757 33.8258L215.691 32.5705L214.46 30.6083L214.452 30.5967ZM220.546 39.0709C220.348 38.437 221.052 38.3609 221.186 38.6561C221.186 38.6561 222.876 41.7711 221.043 43.4195C220.126 44.2538 219.041 44.5505 217.682 44.5272H215.379L215.372 46.8965L210.043 43.7504L215.39 40.6432V42.9736H217.682H217.705C218.755 42.9737 220.645 42.9739 220.786 40.9508C220.827 40.3138 220.746 39.6768 220.546 39.0709Z" fill="#2CAE68"/>
</svg>
